<svg width="12" height="12" viewBox="0 0 12 12" fill="none" xmlns="http://www.w3.org/2000/svg">
<g clip-path="url(#clip0_2_110)">
<path d="M1.875 0.75C1.25391 0.75 0.75 1.25391 0.75 1.875C0.75 2.49609 1.25391 3 1.875 3H5.4375V3.9375L4.3125 5.0625H3C1.86094 5.0625 0.9375 5.98594 0.9375 7.125V8.25H0.75C0.335156 8.25 0 8.58516 0 9V10.5C0 10.9148 0.335156 11.25 0.75 11.25H2.25C2.66484 11.25 3 10.9148 3 10.5V9C3 8.58516 2.66484 8.25 2.25 8.25H2.0625V7.125C2.0625 6.60703 2.48203 6.1875 3 6.1875H4.3125L5.4375 7.3125V8.25H5.25C4.83516 8.25 4.5 8.58516 4.5 9V10.5C4.5 10.9148 4.83516 11.25 5.25 11.25H6.75C7.16484 11.25 7.5 10.9148 7.5 10.5V9C7.5 8.58516 7.16484 8.25 6.75 8.25H6.5625V7.3125L7.6875 6.1875H9C9.51797 6.1875 9.9375 6.60703 9.9375 7.125V8.25H9.75C9.33516 8.25 9 8.58516 9 9V10.5C9 10.9148 9.33516 11.25 9.75 11.25H11.25C11.6648 11.25 12 10.9148 12 10.5V9C12 8.58516 11.6648 8.25 11.25 8.25H11.0625V7.125C11.0625 5.98594 10.1391 5.0625 9 5.0625H7.6875L6.5625 3.9375V3H10.125C10.7461 3 11.25 2.49609 11.25 1.875C11.25 1.25391 10.7461 0.75 10.125 0.75H1.875Z" fill="white"/>
</g>
<defs>
<clipPath id="clip0_2_110">
<rect width="12" height="12" fill="white"/>
</clipPath>
</defs>
</svg>
