<svg width="17" height="12" viewBox="0 0 17 12" fill="none" xmlns="http://www.w3.org/2000/svg">
<path d="M0.333344 1.82126C0.333344 1.33209 0.729891 0.935547 1.21906 0.935547H6.81887C7.30804 0.935547 7.70459 1.33209 7.70459 1.82126C7.70459 2.31043 7.30804 2.70698 6.81887 2.70698H1.21906C0.729891 2.70698 0.333344 2.31043 0.333344 1.82126ZM0.333344 6.24983C0.333344 5.76067 0.729891 5.36412 1.21906 5.36412H10.8876C11.3768 5.36412 11.7734 5.76067 11.7734 6.24983C11.7734 6.739 11.3768 7.13555 10.8876 7.13555H1.21906C0.729892 7.13555 0.333344 6.739 0.333344 6.24983ZM0.333344 10.6784C0.333344 10.1892 0.729891 9.79269 1.21906 9.79269H15.4476C15.9368 9.79269 16.3333 10.1892 16.3333 10.6784C16.3333 11.1676 15.9368 11.5641 15.4476 11.5641H1.21906C0.729892 11.5641 0.333344 11.1676 0.333344 10.6784Z" fill="white"/>
</svg>
