<svg width="13" height="12" viewBox="0 0 13 12" fill="none" xmlns="http://www.w3.org/2000/svg">
<g clip-path="url(#clip0_1_50)">
<path d="M6.46015 11.9291C7.97633 11.9291 9.43042 11.3268 10.5025 10.2547C11.5746 9.18263 12.1769 7.72854 12.1769 6.21236C12.1769 4.69617 11.5746 3.24209 10.5025 2.16998C9.43042 1.09788 7.97633 0.495575 6.46015 0.495575C4.94396 0.495575 3.48987 1.09788 2.41777 2.16998C1.34566 3.24209 0.743362 4.69617 0.743362 6.21236C0.743362 7.72854 1.34566 9.18263 2.41777 10.2547C3.48987 11.3268 4.94396 11.9291 6.46015 11.9291ZM5.9242 8.1775V6.74831H4.495C4.198 6.74831 3.95905 6.50936 3.95905 6.21236C3.95905 5.91535 4.198 5.67641 4.495 5.67641H5.9242V4.24721C5.9242 3.95021 6.16314 3.71127 6.46015 3.71127C6.75715 3.71127 6.99609 3.95021 6.99609 4.24721V5.67641H8.42529C8.7223 5.67641 8.96124 5.91535 8.96124 6.21236C8.96124 6.50936 8.7223 6.74831 8.42529 6.74831H6.99609V8.1775C6.99609 8.47451 6.75715 8.71345 6.46015 8.71345C6.16314 8.71345 5.9242 8.47451 5.9242 8.1775Z" fill="white"/>
</g>
<defs>
<clipPath id="clip0_1_50">
<rect width="11.4336" height="11.4336" fill="white" transform="translate(0.743362 0.495575)"/>
</clipPath>
</defs>
</svg>
