<svg width="10" height="12" viewBox="0 0 10 12" fill="none" xmlns="http://www.w3.org/2000/svg">
<path d="M3.57143 1.78572C3.57143 1.19421 4.05134 0.714294 4.64286 0.714294H5.35714C5.94866 0.714294 6.42857 1.19421 6.42857 1.78572V9.64287C6.42857 10.2344 5.94866 10.7143 5.35714 10.7143H4.64286C4.05134 10.7143 3.57143 10.2344 3.57143 9.64287V1.78572ZM0 6.07144C0 5.47992 0.479911 5.00001 1.07143 5.00001H1.78571C2.37723 5.00001 2.85714 5.47992 2.85714 6.07144V9.64287C2.85714 10.2344 2.37723 10.7143 1.78571 10.7143H1.07143C0.479911 10.7143 0 10.2344 0 9.64287V6.07144ZM8.21429 2.14287H8.92857C9.52009 2.14287 10 2.62278 10 3.21429V9.64287C10 10.2344 9.52009 10.7143 8.92857 10.7143H8.21429C7.62277 10.7143 7.14286 10.2344 7.14286 9.64287V3.21429C7.14286 2.62278 7.62277 2.14287 8.21429 2.14287Z" fill="white"/>
</svg>
