<svg width="7" height="7" viewBox="0 0 7 7" fill="none" xmlns="http://www.w3.org/2000/svg">
<path d="M6.4724 1.13906C6.73281 0.878646 6.73281 0.455729 6.4724 0.195312C6.21198 -0.0651042 5.78906 -0.0651042 5.52865 0.195312L3.3349 2.39115L1.13906 0.197396C0.878646 -0.0630209 0.455729 -0.0630209 0.195312 0.197396C-0.0651042 0.457812 -0.0651042 0.880729 0.195312 1.14115L2.39115 3.3349L0.197396 5.53073C-0.0630208 5.79115 -0.0630208 6.21406 0.197396 6.47448C0.457813 6.7349 0.880729 6.7349 1.14115 6.47448L3.3349 4.27865L5.53073 6.4724C5.79115 6.73281 6.21406 6.73281 6.47448 6.4724C6.7349 6.21198 6.7349 5.78906 6.47448 5.52865L4.27865 3.3349L6.4724 1.13906Z" fill="white"/>
</svg>
