<svg width="17" height="17" viewBox="0 0 17 17" fill="none" xmlns="http://www.w3.org/2000/svg">
<path d="M13.3048 3.12164H10.505L10.2857 2.68533C10.2392 2.59205 10.1676 2.51359 10.079 2.45877C9.99039 2.40395 9.88823 2.37494 9.78403 2.37502H7.1172C7.01323 2.37462 6.91125 2.40352 6.82295 2.4584C6.73464 2.51328 6.66358 2.59193 6.6179 2.68533L6.39859 3.12164H3.59877C3.49976 3.12164 3.40481 3.16097 3.3348 3.23098C3.26479 3.30098 3.22546 3.39594 3.22546 3.49494V4.24156C3.22546 4.34057 3.26479 4.43552 3.3348 4.50553C3.40481 4.57554 3.49976 4.61487 3.59877 4.61487H13.3048C13.4038 4.61487 13.4988 4.57554 13.5688 4.50553C13.6388 4.43552 13.6781 4.34057 13.6781 4.24156V3.49494C13.6781 3.39594 13.6388 3.30098 13.5688 3.23098C13.4988 3.16097 13.4038 3.12164 13.3048 3.12164ZM4.46671 13.271C4.48452 13.5553 4.61001 13.8221 4.81764 14.0172C5.02527 14.2123 5.29943 14.3209 5.58431 14.3209H11.3193C11.6041 14.3209 11.8783 14.2123 12.0859 14.0172C12.2936 13.8221 12.419 13.5553 12.4369 13.271L12.9315 5.36149H3.97208L4.46671 13.271Z" fill="#D54239"/>
</svg>
