<svg width="18" height="18" viewBox="0 0 18 18" fill="none" xmlns="http://www.w3.org/2000/svg">
<g clip-path="url(#clip0_1_258)">
<path d="M9 0C11.3869 0 13.6761 0.948212 15.364 2.63604C17.0518 4.32387 18 6.61305 18 9C18 11.3869 17.0518 13.6761 15.364 15.364C13.6761 17.0518 11.3869 18 9 18C6.61305 18 4.32387 17.0518 2.63604 15.364C0.948212 13.6761 0 11.3869 0 9C0 6.61305 0.948212 4.32387 2.63604 2.63604C4.32387 0.948212 6.61305 0 9 0ZM13.5352 9.87891C13.8656 9.54844 13.8656 9.01406 13.5352 8.68711C13.2047 8.36016 12.6703 8.35664 12.3434 8.68711L9.84727 11.1832V4.78125C9.84727 4.31367 9.47109 3.9375 9.00352 3.9375C8.53594 3.9375 8.15977 4.31367 8.15977 4.78125V11.1832L5.66367 8.68711C5.3332 8.35664 4.79883 8.35664 4.47187 8.68711C4.14492 9.01758 4.14141 9.55195 4.47187 9.87891L8.40234 13.8164C8.73281 14.1469 9.26719 14.1469 9.59414 13.8164L13.5352 9.87891Z" fill="#54C759"/>
</g>
<defs>
<clipPath id="clip0_1_258">
<rect width="18" height="18" fill="white" transform="matrix(1 0 0 -1 0 18)"/>
</clipPath>
</defs>
</svg>
