<svg width="62" height="62" viewBox="0 0 62 62" fill="none" xmlns="http://www.w3.org/2000/svg">
<circle cx="31" cy="31" r="31" fill="#FFF6F3"/>
<g clip-path="url(#clip0_1_175)">
<path d="M22.6301 15.9133C21.0898 15.9133 19.8401 17.163 19.8401 18.7033V42.8833C19.8401 44.4236 21.0898 45.6733 22.6301 45.6733H28.2101V41.0233C28.2101 39.483 29.4598 38.2333 31.0001 38.2333C32.5404 38.2333 33.7901 39.483 33.7901 41.0233V45.6733H39.3701C40.9104 45.6733 42.1601 44.4236 42.1601 42.8833V18.7033C42.1601 17.163 40.9104 15.9133 39.3701 15.9133H22.6301ZM23.5601 29.8633C23.5601 29.3518 23.9786 28.9333 24.4901 28.9333H26.3501C26.8616 28.9333 27.2801 29.3518 27.2801 29.8633V31.7233C27.2801 32.2348 26.8616 32.6533 26.3501 32.6533H24.4901C23.9786 32.6533 23.5601 32.2348 23.5601 31.7233V29.8633ZM30.0701 28.9333H31.9301C32.4416 28.9333 32.8601 29.3518 32.8601 29.8633V31.7233C32.8601 32.2348 32.4416 32.6533 31.9301 32.6533H30.0701C29.5586 32.6533 29.1401 32.2348 29.1401 31.7233V29.8633C29.1401 29.3518 29.5586 28.9333 30.0701 28.9333ZM34.7201 29.8633C34.7201 29.3518 35.1386 28.9333 35.6501 28.9333H37.5101C38.0216 28.9333 38.4401 29.3518 38.4401 29.8633V31.7233C38.4401 32.2348 38.0216 32.6533 37.5101 32.6533H35.6501C35.1386 32.6533 34.7201 32.2348 34.7201 31.7233V29.8633ZM24.4901 21.4933H26.3501C26.8616 21.4933 27.2801 21.9118 27.2801 22.4233V24.2833C27.2801 24.7948 26.8616 25.2133 26.3501 25.2133H24.4901C23.9786 25.2133 23.5601 24.7948 23.5601 24.2833V22.4233C23.5601 21.9118 23.9786 21.4933 24.4901 21.4933ZM29.1401 22.4233C29.1401 21.9118 29.5586 21.4933 30.0701 21.4933H31.9301C32.4416 21.4933 32.8601 21.9118 32.8601 22.4233V24.2833C32.8601 24.7948 32.4416 25.2133 31.9301 25.2133H30.0701C29.5586 25.2133 29.1401 24.7948 29.1401 24.2833V22.4233ZM35.6501 21.4933H37.5101C38.0216 21.4933 38.4401 21.9118 38.4401 22.4233V24.2833C38.4401 24.7948 38.0216 25.2133 37.5101 25.2133H35.6501C35.1386 25.2133 34.7201 24.7948 34.7201 24.2833V22.4233C34.7201 21.9118 35.1386 21.4933 35.6501 21.4933Z" fill="#FB551A"/>
</g>
<defs>
<clipPath id="clip0_1_175">
<rect width="22.32" height="29.76" fill="white" transform="translate(19.8401 15.9133)"/>
</clipPath>
</defs>
</svg>
