<svg width="16" height="16" viewBox="0 0 16 16" fill="none" xmlns="http://www.w3.org/2000/svg">
<g clip-path="url(#clip0_1_246)">
<path d="M10 3H6L4.51875 0.778125C4.29688 0.44375 4.53437 0 4.93437 0H11.0656C11.4656 0 11.7031 0.44375 11.4812 0.778125L10 3ZM6 4H10C10.1187 4.07812 10.2531 4.16562 10.4062 4.2625C12.1781 5.39687 16 7.84062 16 13C16 14.6562 14.6562 16 13 16H3C1.34375 16 0 14.6562 0 13C0 7.84062 3.82188 5.39687 5.59375 4.2625C5.74375 4.16562 5.88125 4.07812 6 4ZM8.625 6.75C8.625 6.40625 8.34375 6.125 8 6.125C7.65625 6.125 7.375 6.40625 7.375 6.75V7.1875C7.1375 7.24062 6.9 7.325 6.68125 7.45312C6.24688 7.7125 5.87187 8.16562 5.875 8.825C5.87813 9.45937 6.25 9.85938 6.64687 10.0969C6.99062 10.3031 7.41875 10.4344 7.75938 10.5344L7.8125 10.55C8.20625 10.6687 8.49375 10.7625 8.6875 10.8844C8.84688 10.9844 8.86875 11.0531 8.87187 11.1406C8.875 11.2969 8.81563 11.3906 8.6875 11.4688C8.53125 11.5656 8.28438 11.625 8.01875 11.6156C7.67188 11.6031 7.34688 11.4938 6.92188 11.35C6.85 11.325 6.775 11.3 6.69688 11.275C6.36875 11.1656 6.01562 11.3438 5.90625 11.6687C5.79688 11.9937 5.975 12.35 6.3 12.4594C6.35938 12.4781 6.425 12.5 6.49062 12.525C6.75 12.6156 7.05 12.7188 7.37187 12.7875V13.2437C7.37187 13.5875 7.65312 13.8687 7.99687 13.8687C8.34062 13.8687 8.62187 13.5875 8.62187 13.2437V12.8125C8.87187 12.7594 9.12187 12.6719 9.34688 12.5312C9.79375 12.2531 10.1312 11.7781 10.1219 11.125C10.1125 10.4906 9.75625 10.0813 9.35312 9.825C8.99375 9.6 8.54375 9.4625 8.19375 9.35625L8.17188 9.35C7.77187 9.22813 7.4875 9.14062 7.2875 9.02188C7.125 8.925 7.12187 8.86875 7.12187 8.8125C7.12187 8.69687 7.16563 8.60938 7.31563 8.52188C7.48438 8.42188 7.74063 8.3625 7.9875 8.36563C8.2875 8.36875 8.61875 8.43437 8.9625 8.52812C9.29688 8.61562 9.6375 8.41875 9.72812 8.08438C9.81875 7.75 9.61875 7.40937 9.28438 7.31875C9.08125 7.26562 8.85625 7.2125 8.625 7.17188V6.7375V6.75Z" fill="#FB551A"/>
</g>
<defs>
<clipPath id="clip0_1_246">
<rect width="16" height="16" fill="white"/>
</clipPath>
</defs>
</svg>
