<svg width="12" height="14" viewBox="0 0 12 14" fill="none" xmlns="http://www.w3.org/2000/svg">
<g clip-path="url(#clip0_130_24)">
<path d="M6.0001 -1.71661e-05C5.52599 -1.71661e-05 5.14295 0.383019 5.14295 0.857126V1.37141C3.1876 1.76784 1.71438 3.4982 1.71438 5.57141V6.07498C1.71438 7.33391 1.25099 8.54998 0.415276 9.49284L0.217062 9.71516C-0.00793808 9.96695 -0.0615095 10.3286 0.0750976 10.6366C0.211705 10.9446 0.51974 11.1428 0.85724 11.1428H11.143C11.4805 11.1428 11.7858 10.9446 11.9251 10.6366C12.0644 10.3286 12.0081 9.96695 11.7831 9.71516L11.5849 9.49284C10.7492 8.54998 10.2858 7.33659 10.2858 6.07498V5.57141C10.2858 3.4982 8.8126 1.76784 6.85724 1.37141V0.857126C6.85724 0.383019 6.4742 -1.71661e-05 6.0001 -1.71661e-05ZM7.21349 13.2134C7.53492 12.8919 7.71438 12.4553 7.71438 12H6.0001H4.28581C4.28581 12.4553 4.46528 12.8919 4.7867 13.2134C5.10813 13.5348 5.54474 13.7143 6.0001 13.7143C6.45545 13.7143 6.89206 13.5348 7.21349 13.2134Z" fill="white"/>
</g>
<defs>
<clipPath id="clip0_130_24">
<rect width="12" height="13.7143" fill="white"/>
</clipPath>
</defs>
</svg>
