<svg width="19" height="16" viewBox="0 0 19 16" fill="none" xmlns="http://www.w3.org/2000/svg">
<g clip-path="url(#clip0_1_202)">
<path d="M13.0166 2.99576V3.01685C12.8569 3.0048 12.6972 2.99576 12.5345 2.99576H8.67822C8.18112 2.99576 7.69908 3.05903 7.23812 3.17652C7.23511 3.11627 7.2321 3.05601 7.2321 2.99576C7.2321 1.399 8.52758 0.103516 10.1243 0.103516C11.7211 0.103516 13.0166 1.399 13.0166 2.99576ZM12.5345 3.95984C12.64 3.95984 12.7454 3.96285 12.8479 3.96888C12.9744 3.97791 13.1009 3.98997 13.2275 4.00804C13.7577 3.39043 14.5471 2.99576 15.4268 2.99576H15.7733C16.0866 2.99576 16.3155 3.29101 16.2402 3.59529L15.8245 5.25833C16.3005 5.70422 16.6891 6.24652 16.9542 6.85208H17.3549C17.8882 6.85208 18.319 7.2829 18.319 7.81616V10.7084C18.319 11.2417 17.8882 11.6725 17.3549 11.6725H16.3909C16.1167 12.037 15.7913 12.3624 15.4268 12.6366V14.5647C15.4268 15.098 14.996 15.5288 14.4627 15.5288H13.4986C12.9654 15.5288 12.5345 15.098 12.5345 14.5647V13.6006H8.67822V14.5647C8.67822 15.098 8.2474 15.5288 7.71414 15.5288H6.75006C6.2168 15.5288 5.78598 15.098 5.78598 14.5647V12.6366C4.73453 11.8472 4.01749 10.6391 3.88192 9.26228H3.01425C1.88145 9.26228 0.965576 8.3464 0.965576 7.21361C0.965576 6.08081 1.88145 5.16494 3.01425 5.16494H3.13476C3.53545 5.16494 3.85782 5.4873 3.85782 5.888C3.85782 6.28869 3.53545 6.61106 3.13476 6.61106H3.01425C2.68284 6.61106 2.4117 6.88221 2.4117 7.21361C2.4117 7.54501 2.68284 7.81616 3.01425 7.81616H3.95423C4.31877 6.01453 5.69258 4.57745 7.45806 4.1165C7.8467 4.01407 8.25643 3.95984 8.67822 3.95984H12.5345ZM14.4627 8.05718C14.4627 7.86541 14.3865 7.6815 14.2509 7.5459C14.1153 7.4103 13.9314 7.33412 13.7396 7.33412C13.5479 7.33412 13.364 7.4103 13.2284 7.5459C13.0928 7.6815 13.0166 7.86541 13.0166 8.05718C13.0166 8.24895 13.0928 8.43286 13.2284 8.56846C13.364 8.70406 13.5479 8.78024 13.7396 8.78024C13.9314 8.78024 14.1153 8.70406 14.2509 8.56846C14.3865 8.43286 14.4627 8.24895 14.4627 8.05718Z" fill="#0080FF"/>
</g>
<defs>
<clipPath id="clip0_1_202">
<rect width="17.3534" height="15.4253" fill="white" transform="translate(0.965576 0.103516)"/>
</clipPath>
</defs>
</svg>
