<svg width="10" height="14" viewBox="0 0 10 14" fill="none" xmlns="http://www.w3.org/2000/svg">
<g clip-path="url(#clip0_130_120)">
<path d="M9.75523 3.08858C10.0808 2.76306 10.0808 2.23441 9.75523 1.90889C9.42971 1.58337 8.90106 1.58337 8.57554 1.90889L0.242208 10.2422C-0.0833123 10.5677 -0.0833123 11.0964 0.242208 11.4219C0.567729 11.7474 1.09638 11.7474 1.4219 11.4219L9.75523 3.08858ZM3.33335 3.33337C3.33335 2.89134 3.15776 2.46742 2.8452 2.15486C2.53264 1.8423 2.10872 1.6667 1.66669 1.6667C1.22466 1.6667 0.800737 1.8423 0.488176 2.15486C0.175616 2.46742 2.09758e-05 2.89134 2.09758e-05 3.33337C2.09758e-05 3.7754 0.175616 4.19932 0.488176 4.51188C0.800737 4.82444 1.22466 5.00004 1.66669 5.00004C2.10872 5.00004 2.53264 4.82444 2.8452 4.51188C3.15776 4.19932 3.33335 3.7754 3.33335 3.33337ZM10 10C10 9.55801 9.82443 9.13409 9.51187 8.82152C9.1993 8.50896 8.77538 8.33337 8.33335 8.33337C7.89133 8.33337 7.4674 8.50896 7.15484 8.82152C6.84228 9.13409 6.66669 9.55801 6.66669 10C6.66669 10.4421 6.84228 10.866 7.15484 11.1785C7.4674 11.4911 7.89133 11.6667 8.33335 11.6667C8.77538 11.6667 9.1993 11.4911 9.51187 11.1785C9.82443 10.866 10 10.4421 10 10Z" fill="white"/>
</g>
<defs>
<clipPath id="clip0_130_120">
<rect width="10" height="13.3333" fill="white"/>
</clipPath>
</defs>
</svg>
