<svg width="10" height="12" viewBox="0 0 10 12" fill="none" xmlns="http://www.w3.org/2000/svg">
<g clip-path="url(#clip0_130_115)">
<path d="M5 5.71429C5.75776 5.71429 6.48449 5.41327 7.02031 4.87745C7.55612 4.34163 7.85714 3.6149 7.85714 2.85714C7.85714 2.09938 7.55612 1.37266 7.02031 0.836838C6.48449 0.30102 5.75776 0 5 0C4.24224 0 3.51551 0.30102 2.97969 0.836838C2.44388 1.37266 2.14286 2.09938 2.14286 2.85714C2.14286 3.6149 2.44388 4.34163 2.97969 4.87745C3.51551 5.41327 4.24224 5.71429 5 5.71429ZM3.97991 6.78571C1.78125 6.78571 0 8.56696 0 10.7656C0 11.1317 0.296875 11.4286 0.662946 11.4286H9.33705C9.70312 11.4286 10 11.1317 10 10.7656C10 8.56696 8.21875 6.78571 6.02009 6.78571H3.97991Z" fill="white"/>
</g>
<defs>
<clipPath id="clip0_130_115">
<rect width="10" height="11.4286" fill="white"/>
</clipPath>
</defs>
</svg>
